<?xml version="1.0"?>
<svg version="1.1" xmlns="http://www.w3.org/2000/svg" width="550" height="200" style=""><path fill="#ffffff" d="M18.1005859375,119.5556640625q-0.1220703125-1.6357421875,0.1953125-3.0029296875t1.26953125-2.2216796875t3.0517578125-0.8544921875q0.48828125,0,1.1962890625,0.1220703125t1.3916015625,0.3173828125t1.1474609375,0.5859375t0.4638671875,1.07421875l0,5.517578125q1.904296875-2.197265625,4.150390625-3.1494140625t5.126953125-0.9521484375q2.197265625,0,4.345703125,1.0009765625t4.052734375,2.6611328125t3.2958984375,3.662109375t2.0263671875,4.00390625q0.390625-1.806640625,0.87890625-4.4189453125t1.4404296875-5.0048828125t2.5146484375-4.1015625t4.150390625-1.708984375q2.783203125,0,4.6875,2.001953125t3.1005859375,5.2001953125t1.806640625,7.1533203125t0.9033203125,7.8125t0.29296875,7.2021484375l0,5.2490234375q0,0.5859375-0.439453125,0.9521484375t-1.0986328125,0.5615234375t-1.3671875,0.244140625t-1.0986328125,0.048828125q-1.513671875,0-2.7587890625-0.4638671875t-1.2451171875-2.3681640625l0-4.39453125t-0.09765625-5.6884765625t-0.341796875-6.103515625t-0.634765625-5.5419921875t-1.0009765625-4.00390625t-1.4892578125-1.5625q-1.220703125,0-1.7578125,1.3671875t-0.9033203125,3.466796875t-0.5615234375,4.443359375t-0.537109375,4.443359375t-1.0986328125,3.4423828125t-2.0751953125,1.3427734375q-1.416015625,0-2.490234375-1.3427734375t-2.1240234375-3.3447265625t-2.099609375-4.296875t-2.3193359375-4.296875q-1.26953125-2.05078125-2.734375-3.3203125q-1.318359375-1.220703125-2.978515625-1.171875l-0.244140625,0q-2.197265625,0.09765625-3.4423828125,1.5869140625t-1.904296875,3.6376953125t-0.8056640625,4.6142578125t-0.146484375,4.3212890625q0,1.7578125,0.29296875,4.1015625q0.1953125,1.5625,0.1953125,2.978515625q0,0.732421875-0.048828125,1.416015625q-0.146484375,2.05078125-1.0986328125,3.4423828125t-3.5400390625,1.3916015625q-0.9765625,0-2.44140625-0.1953125t-1.953125-1.318359375q-1.123046875-2.001953125-1.708984375-5.0537109375t-0.87890625-6.298828125t-0.341796875-6.4453125t-0.048828125-5.4931640625q0-1.611328125-0.1220703125-3.2470703125z M79.68115234375,130.615234375q0-4.4921875,1.0498046875-8.8134765625t1.7822265625-8.6181640625q0.1953125-1.123046875,1.5380859375-1.3916015625t2.2705078125-0.2685546875q1.611328125,0,2.587890625,0.48828125q0.390625,0.1953125,0.732421875,0.439453125t0.341796875,0.634765625q0,4.19921875-1.0009765625,8.203125t-1.0009765625,8.49609375q0,1.513671875,0.2197265625,2.8564453125t0.4150390625,2.6611328125l0.29296875,1.416015625q0,0.390625,0.048828125,0.68359375t0.146484375,0.68359375q0,0.87890625-1.2451171875,1.1962890625t-2.1728515625,0.3173828125q-1.416015625,0-2.6123046875-0.5615234375t-1.8798828125-1.9287109375l-0.68359375-1.416015625q-0.5859375-1.123046875-0.5859375-2.5146484375t-0.244140625-2.5634765625z M82.80615234375,101.220703125l0-0.927734375q0-2.294921875,1.1474609375-4.1015625t3.4423828125-1.806640625q0.29296875,0,0.5615234375,0.048828125t0.5615234375,0.048828125q0.5859375,0.09765625,1.5380859375,0.4638671875t0.9521484375,1.1474609375l0,0.09765625q-0.1953125,0.390625-0.244140625,0.8056640625t-0.244140625,0.7080078125l0.09765625-0.09765625q-0.5859375,1.513671875-0.9521484375,2.44140625t-0.8056640625,1.4892578125t-1.0986328125,0.8056640625t-1.8798828125,0.244140625q-0.1953125,0-0.68359375-0.048828125t-1.0498046875-0.1953125t-0.9521484375-0.390625t-0.390625-0.732421875z M101.0517578125,132.03125l0-1.416015625q0-1.7578125,0.09765625-3.3203125q0.09765625-2.197265625,0.09765625-3.61328125q0-0.78125,0.09765625-1.7822265625t0.48828125-1.5869140625q0.48828125-0.48828125,1.1474609375-1.0009765625t1.4404296875-0.5126953125q2.490234375,0,3.90625,0.5615234375t1.513671875,2.3193359375l0.1953125,1.513671875q0.87890625-2.099609375,2.34375-5.2001953125t3.3935546875-5.908203125t4.345703125-4.78515625t5.1025390625-1.9775390625q2.490234375,0,4.1015625,2.34375t2.5634765625,5.9814453125t1.3427734375,8.10546875t0.537109375,8.7646484375t0.1953125,7.8369140625t0.341796875,5.3466796875q0.1953125,1.513671875,0.6591796875,3.1982421875t0.4638671875,3.1005859375q0,0.390625-0.5615234375,0.7568359375t-1.1962890625,0.6103515625t-1.2939453125,0.390625t-0.9521484375,0.146484375q-1.904296875,0-2.7099609375-2.8564453125t-1.0009765625-7.1533203125t-0.1953125-9.3017578125t-0.341796875-9.3017578125t-1.3916015625-7.1533203125t-3.3447265625-2.9541015625q-2.099609375,0-4.345703125,2.7099609375t-3.857421875,7.2021484375q-1.5625,4.4921875-2.1484375,10.205078125q-0.1953125,1.806640625-0.1953125,3.61328125q0,3.955078125,0.830078125,7.91015625q0.09765625,0.68359375-0.5615234375,1.025390625t-1.6357421875,0.537109375t-1.9775390625,0.244140625t-1.5380859375,0.048828125q-1.904296875,0-3.0517578125-1.3427734375t-1.7822265625-3.4423828125t-0.8544921875-4.7119140625t-0.2685546875-5.1513671875z M145.42041015625,131.201171875q0-3.80859375,0.8056640625-6.9091796875t2.5634765625-5.2490234375t4.6142578125-3.3447265625t6.9580078125-1.1962890625q2.294921875,0,4.6875,0.6103515625t4.1015625,2.2705078125q0-0.9765625,0.1953125-4.0283203125t0.48828125-7.1044921875t0.6103515625-8.49609375t0.5615234375-8.251953125t0.439453125-6.396484375t0.29296875-2.9296875q0.48828125-1.416015625,1.806640625-1.6845703125t2.490234375-0.2685546875q3.076171875,0,3.7841796875,0.9765625t0.7080078125,3.90625q0,10.693359375-0.9521484375,21.2890625t-0.9521484375,21.2890625q0,6.884765625,0.2685546875,13.8427734375t1.9287109375,13.6962890625l0.537109375,0.48828125l0.29296875,0.87890625l-0.732421875,1.123046875q-1.85546875,1.171875-4.296875,1.171875l-0.1953125,0q-2.490234375,0-4.58984375-1.171875q-0.78125-0.48828125-1.2939453125-2.9052734375t-0.8056640625-5.322265625t-0.439453125-5.5908203125t-0.244140625-3.80859375q-1.708984375,3.90625-4.6630859375,6.7138671875t-7.4462890625,2.8076171875q-3.515625,0-5.76171875-1.513671875t-3.4912109375-3.857421875t-1.7578125-5.2490234375t-0.5126953125-5.7861328125z M151.32861328125,131.494140625q0,1.123046875,0.2685546875,3.3203125t0.8544921875,4.39453125t1.6357421875,3.90625t2.7587890625,1.708984375q2.294921875-1.123046875,4.150390625-3.7353515625t3.1982421875-5.76171875t2.099609375-6.298828125t0.7568359375-5.4443359375q0-2.880859375-2.099609375-4.78515625t-5.029296875-1.904296875q-0.87890625,0-1.7822265625,0.341796875t-1.6845703125,0.78125q-1.806640625,1.708984375-2.8076171875,3.1005859375t-1.513671875,2.880859375t-0.6591796875,3.2958984375t-0.146484375,4.19921875z M191.64453125,119.189453125q0-2.001953125,1.171875-3.4423828125t2.8564453125-2.34375t3.6865234375-1.3427734375t3.7109375-0.439453125q1.318359375,0,3.515625,0.390625t4.296875,1.171875t3.6376953125,2.05078125t1.5380859375,2.978515625q0,0.78125-0.5859375,1.3916015625t-1.220703125,0.6103515625q-1.318359375,0-2.392578125-0.8544921875t-2.2216796875-1.806640625t-2.5146484375-1.806640625t-3.076171875-0.8544921875t-3.1005859375,1.0986328125t-1.3916015625,2.9052734375q0,2.978515625,2.099609375,5.8349609375t4.6142578125,6.005859375t4.6142578125,6.6162109375t2.099609375,7.666015625q0,1.806640625-0.7568359375,3.0517578125t-2.001953125,2.0263671875t-2.8076171875,1.1962890625t-3.02734375,0.4150390625q-1.611328125,0-3.759765625-0.7568359375t-4.052734375-2.001953125t-3.1982421875-2.9052734375t-1.2939453125-3.466796875q0-0.87890625,1.2451171875-1.123046875t1.8310546875-0.244140625q0.29296875,0,0.9033203125,0.1953125t1.1962890625,0.439453125t1.0498046875,0.537109375t0.3662109375,0.634765625q0.48828125,0.5859375,1.4892578125,1.7333984375t2.001953125,1.85546875t1.7578125,0.5126953125t0.7568359375-2.197265625q0-3.80859375-2.05078125-7.0068359375t-4.4677734375-6.25t-4.4677734375-6.0546875t-2.05078125-6.4208984375z M226.05224609375,130.810546875q0-3.515625,0.9033203125-7.0556640625t2.8076171875-6.34765625t4.8583984375-4.5654296875t6.9580078125-1.7578125q1.708984375,0,3.759765625,0.4150390625t3.7841796875,1.318359375t2.9296875,2.34375t1.1962890625,3.5400390625q0,1.318359375-0.68359375,1.7578125t-1.806640625,0.439453125l-0.341796875-0.48828125t-0.9521484375-1.2451171875t-1.2939453125-1.611328125t-1.318359375-1.4404296875q-2.001953125-2.001953125-3.759765625-2.1484375l-0.390625,0q-1.46484375,0-2.734375,0.87890625q-1.416015625,1.07421875-2.5146484375,3.02734375t-1.8310546875,4.150390625t-1.1474609375,4.443359375t-0.4150390625,3.7109375q0,2.001953125,0.4638671875,4.5654296875t1.5625,4.8583984375t2.783203125,3.857421875t4.3212890625,1.5625q2.392578125,0,4.345703125-1.171875t3.7353515625-2.6123046875t3.4912109375-2.587890625t3.515625-1.1474609375q0.78125,0,1.5869140625,0.1953125t0.8056640625,1.025390625l0,0.29296875q-0.87890625,2.294921875-2.978515625,4.052734375t-4.7119140625,3.0517578125t-5.419921875,1.9287109375t-5.0048828125,0.634765625q-4.1015625,0-7.2021484375-1.3427734375t-5.1513671875-3.6865234375t-3.1005859375-5.6396484375t-1.0498046875-7.2021484375z M268.6630859375,131.787109375q0-3.3203125,0.9033203125-6.396484375t2.7099609375-5.4931640625t4.5166015625-3.857421875t6.2744140625-1.4404296875q2.197265625,0,4.8583984375,0.6591796875t5.0048828125,1.953125t3.90625,3.2958984375t1.5625,4.58984375q0,1.220703125-0.4150390625,1.85546875t-1.6845703125,0.634765625l-0.537109375-0.09765625q1.416015625,3.80859375,2.44140625,7.8125t2.001953125,8.0078125q0.390625,0.78125,0.5859375,1.3916015625t0.1953125,1.1962890625q0,0.78125-0.439453125,1.2939453125t-1.1474609375,0.7568359375t-1.46484375,0.341796875t-1.3427734375,0.09765625q-2.099609375,0-3.1494140625-0.732421875t-1.513671875-2.001953125t-0.5615234375-2.8564453125t-0.390625-3.1982421875q-0.5859375,1.904296875-1.5380859375,3.7109375t-2.24609375,3.2470703125t-3.0517578125,2.294921875t-3.955078125,0.8544921875q-3.22265625,0-5.419921875-1.85546875t-3.5400390625-4.5654296875t-1.953125-5.7861328125t-0.6103515625-5.712890625z M275.5966796875,131.103515625q0,1.806640625,0.244140625,3.80859375t0.8056640625,3.955078125t1.4404296875,3.6865234375t2.197265625,3.0517578125q2.392578125-2.587890625,3.5400390625-6.298828125t2.05078125-7.1533203125t2.05078125-5.908203125t3.5400390625-2.4658203125q1.513671875,0,2.5390625,0.537109375q-0.48828125-1.220703125-1.611328125-2.3681640625t-2.5146484375-2.099609375t-2.880859375-1.5625t-2.8076171875-0.6103515625q-0.390625,0-0.9033203125,0.1220703125t-0.8056640625,0.0244140625q-2.001953125,0.5859375-3.2958984375,2.0263671875t-2.099609375,3.3935546875t-1.1474609375,4.00390625t-0.341796875,3.857421875z M310.98095703125,114.111328125q0-2.294921875,0.9033203125-3.3935546875t3.2958984375-1.0986328125q1.416015625,0,2.6611328125,0.5859375t1.2451171875,2.490234375q0.1953125,2.783203125,0.1953125,5.8349609375t0.537109375,5.7861328125q1.220703125-2.001953125,2.7587890625-4.00390625t3.3935546875-3.564453125t4.052734375-2.5146484375t4.78515625-0.9521484375q3.515625,0,5.95703125,1.46484375t4.0283203125,3.80859375t2.294921875,5.2978515625t0.7080078125,5.9326171875q0,4.58984375-1.3916015625,7.4951171875t-3.6865234375,4.5654296875t-5.2001953125,2.24609375t-5.8349609375,0.5859375q-2.587890625,0-4.833984375-1.0009765625t-3.125-3.7841796875q0-0.78125,1.1474609375-0.9765625t1.6357421875-0.1953125q1.611328125,0,2.392578125,0.87890625q0.5859375,0.68359375,1.2939453125,1.3916015625t1.4892578125,0.7080078125q1.513671875,0,3.173828125-0.8544921875t3.0517578125-2.24609375t2.34375-3.2958984375t0.9521484375-3.90625q0-1.708984375-0.29296875-4.248046875t-1.0009765625-4.8828125t-1.953125-4.052734375t-3.1494140625-1.708984375q-2.880859375,0-5.2001953125,2.63671875t-3.857421875,6.34765625t-2.392578125,7.71484375t-0.8544921875,6.689453125t0.341796875,6.787109375t0.7080078125,8.5205078125t0.7080078125,8.5205078125t0.341796875,6.787109375q0,0.68359375-0.5615234375,1.0986328125t-1.3427734375,0.6591796875t-1.5869140625,0.29296875t-1.1962890625,0.048828125q-1.318359375,0-2.7587890625-0.29296875t-1.9775390625-1.806640625q-0.68359375-2.392578125-1.26953125-6.8115234375t-1.0498046875-9.765625t-0.8056640625-11.23046875t-0.5859375-11.3525390625t-0.3662109375-10.009765625t-0.1220703125-7.2265625z M357.791015625,133.7890625q0-3.41796875,0.7568359375-8.056640625t2.5634765625-8.7890625t4.7607421875-7.0556640625t7.4462890625-2.9052734375q4.19921875,0,6.298828125,2.4169921875t2.099609375,6.5185546875q0,2.685546875-1.0009765625,5.8837890625t-2.8564453125,6.0546875t-4.39453125,4.7607421875t-5.6640625,1.904296875l-1.26953125-0.09765625q0,1.318359375,0.390625,3.5400390625t1.1474609375,4.4189453125t1.953125,3.857421875t2.9052734375,1.66015625q2.490234375,0,4.78515625-2.001953125t4.345703125-4.443359375t3.80859375-4.443359375t3.22265625-2.001953125q0.78125,0,1.611328125,0.244140625t0.927734375,1.3671875q0,0.68359375-0.3662109375,1.123046875t-0.6591796875,0.9765625q-1.513671875,2.587890625-3.2958984375,4.931640625t-4.0283203125,4.248046875t-4.9072265625,3.0029296875t-5.8837890625,1.0986328125q-4.19921875,0-6.982421875-1.4892578125t-4.4921875-4.00390625t-2.4658203125-5.810546875t-0.7568359375-6.9091796875z M366.53125,130.078125l1.3671875,1.220703125q0.9765625,0.87890625,1.953125,0.390625t1.7578125-1.7822265625t1.4404296875-3.1982421875t1.171875-3.90625t0.7568359375-3.90625t0.244140625-3.173828125l0-1.66015625t-0.146484375-1.7578125t-0.5126953125-1.3916015625t-1.1474609375-0.7080078125q-0.244140625-0.048828125-0.439453125-0.048828125q-1.66015625,0-2.83203125,2.099609375q-1.26953125,2.34375-2.05078125,5.6884765625t-1.123046875,6.8603515625t-0.439453125,5.2734375z M398.59521484375,119.189453125q0-2.001953125,1.171875-3.4423828125t2.8564453125-2.34375t3.6865234375-1.3427734375t3.7109375-0.439453125q1.318359375,0,3.515625,0.390625t4.296875,1.171875t3.6376953125,2.05078125t1.5380859375,2.978515625q0,0.78125-0.5859375,1.3916015625t-1.220703125,0.6103515625q-1.318359375,0-2.392578125-0.8544921875t-2.2216796875-1.806640625t-2.5146484375-1.806640625t-3.076171875-0.8544921875t-3.1005859375,1.0986328125t-1.3916015625,2.9052734375q0,2.978515625,2.099609375,5.8349609375t4.6142578125,6.005859375t4.6142578125,6.6162109375t2.099609375,7.666015625q0,1.806640625-0.7568359375,3.0517578125t-2.001953125,2.0263671875t-2.8076171875,1.1962890625t-3.02734375,0.4150390625q-1.611328125,0-3.759765625-0.7568359375t-4.052734375-2.001953125t-3.1982421875-2.9052734375t-1.2939453125-3.466796875q0-0.87890625,1.2451171875-1.123046875t1.8310546875-0.244140625q0.29296875,0,0.9033203125,0.1953125t1.1962890625,0.439453125t1.0498046875,0.537109375t0.3662109375,0.634765625q0.48828125,0.5859375,1.4892578125,1.7333984375t2.001953125,1.85546875t1.7578125,0.5126953125t0.7568359375-2.197265625q0-3.80859375-2.05078125-7.0068359375t-4.4677734375-6.25t-4.4677734375-6.0546875t-2.05078125-6.4208984375z"/><path fill="#" d=""/></svg>
