<?xml version="1.0" encoding="utf-8"?>
<!-- Generator: Adobe Illustrator 25.0.0, SVG Export Plug-In . SVG Version: 6.00 Build 0)  -->
<svg version="1.1" id="Layer_1" xmlns="http://www.w3.org/2000/svg" xmlns:xlink="http://www.w3.org/1999/xlink" x="0px" y="0px"
	 viewBox="0 0 24 24" style="enable-background:new 0 0 24 24;" xml:space="preserve">
<style type="text/css">
	.st0{fill:none;}
</style>
<rect class="st0" width="24" height="24"/>
<g>
	<g>
		<path d="M21.2,12.5l2.8,2.2l-3.7,6.4L17,19.7c-0.3,0.2-0.6,0.4-0.9,0.5l-0.4,3.5H8.3l-0.4-3.5C7.6,20,7.3,19.9,7,19.7L3.7,21
			L0,14.7l2.8-2.2c0-0.2,0-0.4,0-0.5s0-0.4,0-0.5L0,9.3l3.7-6.4L7,4.3c0.3-0.2,0.6-0.4,0.9-0.5l0.4-3.5h7.3L16,3.8
			c0.4,0.2,0.7,0.3,1,0.5L20.3,3L24,9.3l-2.8,2.2c0,0.2,0,0.4,0,0.5S21.2,12.4,21.2,12.5z M16.4,12c0-2.4-2-4.4-4.4-4.4
			s-4.4,2-4.4,4.4s2,4.4,4.4,4.4S16.4,14.4,16.4,12z"/>
	</g>
</g>
</svg>
